<?xml version="1.0" encoding="utf-8"?>
<!-- Generator: Adobe Illustrator 23.0.2, SVG Export Plug-In . SVG Version: 6.00 Build 0)  -->
<svg version="1.1" id="Layer_1" xmlns="http://www.w3.org/2000/svg" xmlns:xlink="http://www.w3.org/1999/xlink" x="0px" y="0px"
	 viewBox="0 0 24 24" style="enable-background:new 0 0 24 24;" xml:space="preserve">
<style type="text/css">
	.st0{fill:#FFFFFF;stroke:#000000;stroke-miterlimit:10;}
	.st1{fill:#FFFFFF;stroke:#000000;stroke-width:0.7993;stroke-miterlimit:10;}
</style>
<path class="st0" d="M18.9,18.5H4.8c-0.6,0-1.1-0.5-1.1-1.1V8.5h5.6c3.1,0,6.3,0,9.4,0c0.1,0,0.5,0,0.9,0.4c0.2,0.2,0.4,0.5,0.4,0.9
	v7.6C20.1,18,19.6,18.5,18.9,18.5z"/>
<path class="st1" d="M12.9,8.5c-3.1,0-6.2,0.1-9.3,0.1v-3c0-0.6,0.5-1,1-1l4.4,0C10.3,5.9,11.6,7.2,12.9,8.5z"/>
</svg>
